<?xml version="1.0" encoding="UTF-8"?>

<!DOCTYPE svg PUBLIC '-//W3C//DTD SVG 1.0//EN' 'http://www.w3.org/TR/2001/REC-SVG-20010904/DTD/svg10.dtd'>
<svg style="fill-opacity:1; color-interpolation:auto; color-rendering:auto; text-rendering:auto; stroke:black; stroke-linecap:square; stroke-miterlimit:10; stroke-opacity:1; shape-rendering:auto; fill:black; stroke-dasharray:none; font-weight:normal; stroke-width:1; font-family:&apos;sansserif&apos;; font-style:normal; stroke-linejoin:miter; font-size:12; image-rendering:auto; stroke-dashoffset:0;" xmlns="http://www.w3.org/2000/svg" width="700" xmlns:xlink="http://www.w3.org/1999/xlink" height="653">
  <!--Generated by Selena using Batik-->
  <defs id="genericDefs" />
  <g>
    <defs id="defs1">
      <clipPath clipPathUnits="userSpaceOnUse" id="clipPath1">
        <path d="M0 0 L12000 0 L12000 12000 L0 12000 L0 0 Z" />
      </clipPath>
      <clipPath clipPathUnits="userSpaceOnUse" id="clipPath2">
        <path d="M273 273 L273 325 L486 325 L486 273 Z" />
      </clipPath>
      <clipPath clipPathUnits="userSpaceOnUse" id="clipPath3">
        <path d="M270 270 L486 270 L486 325 L270 325 L270 270 Z" />
      </clipPath>
      <clipPath clipPathUnits="userSpaceOnUse" id="clipPath4">
        <path d="M0 0 L0 13 L114 13 L114 0 Z" />
      </clipPath>
      <clipPath clipPathUnits="userSpaceOnUse" id="clipPath5">
        <path d="M0 0 L0 13 L183 13 L183 0 Z" />
      </clipPath>
      <clipPath clipPathUnits="userSpaceOnUse" id="clipPath6">
        <path d="M0 0 L0 13 L147 13 L147 0 Z" />
      </clipPath>
      <clipPath clipPathUnits="userSpaceOnUse" id="clipPath7">
        <path d="M509 33 L509 73 L533 73 L533 33 Z" />
      </clipPath>
      <clipPath clipPathUnits="userSpaceOnUse" id="clipPath8">
        <path d="M484 30 L556 30 L556 73 L484 73 L484 30 Z" />
      </clipPath>
      <clipPath clipPathUnits="userSpaceOnUse" id="clipPath9">
        <path d="M0 0 L0 15 L72 15 L72 0 Z" />
      </clipPath>
      <clipPath clipPathUnits="userSpaceOnUse" id="clipPath10">
        <path d="M484 88 L484 568 L556 568 L556 88 Z" />
      </clipPath>
      <clipPath clipPathUnits="userSpaceOnUse" id="clipPath11">
        <path d="M149 33 L149 73 L173 73 L173 33 Z" />
      </clipPath>
      <clipPath clipPathUnits="userSpaceOnUse" id="clipPath12">
        <path d="M124 30 L195 30 L195 73 L124 73 L124 30 Z" />
      </clipPath>
      <clipPath clipPathUnits="userSpaceOnUse" id="clipPath13">
        <path d="M0 0 L0 15 L71 15 L71 0 Z" />
      </clipPath>
      <clipPath clipPathUnits="userSpaceOnUse" id="clipPath14">
        <path d="M124 88 L124 568 L195 568 L195 88 Z" />
      </clipPath>
      <clipPath clipPathUnits="userSpaceOnUse" id="clipPath15">
        <path d="M55 33 L55 73 L79 73 L79 33 Z" />
      </clipPath>
      <clipPath clipPathUnits="userSpaceOnUse" id="clipPath16">
        <path d="M30 30 L101 30 L101 73 L30 73 L30 30 Z" />
      </clipPath>
      <clipPath clipPathUnits="userSpaceOnUse" id="clipPath17">
        <path d="M30 88 L30 568 L101 568 L101 88 Z" />
      </clipPath>
      <clipPath clipPathUnits="userSpaceOnUse" id="clipPath18">
        <path d="M221 33 L221 68 L295 68 L295 33 Z" />
      </clipPath>
      <clipPath clipPathUnits="userSpaceOnUse" id="clipPath19">
        <path d="M218 30 L295 30 L295 68 L218 68 L218 30 Z" />
      </clipPath>
      <clipPath clipPathUnits="userSpaceOnUse" id="clipPath20">
        <path d="M0 0 L0 15 L74 15 L74 0 Z" />
      </clipPath>
      <clipPath clipPathUnits="userSpaceOnUse" id="clipPath21">
        <path d="M218 68 L218 568 L295 568 L295 68 Z" />
      </clipPath>
      <clipPath clipPathUnits="userSpaceOnUse" id="clipPath22">
        <path d="M218 68 L295 68 L295 568 L218 568 L218 68 Z" />
      </clipPath>
      <clipPath clipPathUnits="userSpaceOnUse" id="clipPath23">
        <path d="M321 33 L321 68 L386 68 L386 33 Z" />
      </clipPath>
      <clipPath clipPathUnits="userSpaceOnUse" id="clipPath24">
        <path d="M318 30 L386 30 L386 68 L318 68 L318 30 Z" />
      </clipPath>
      <clipPath clipPathUnits="userSpaceOnUse" id="clipPath25">
        <path d="M0 0 L0 15 L65 15 L65 0 Z" />
      </clipPath>
      <clipPath clipPathUnits="userSpaceOnUse" id="clipPath26">
        <path d="M318 68 L318 568 L386 568 L386 68 Z" />
      </clipPath>
      <clipPath clipPathUnits="userSpaceOnUse" id="clipPath27">
        <path d="M318 68 L386 68 L386 568 L318 568 L318 68 Z" />
      </clipPath>
      <clipPath clipPathUnits="userSpaceOnUse" id="clipPath28">
        <path d="M412 33 L412 68 L461 68 L461 33 Z" />
      </clipPath>
      <clipPath clipPathUnits="userSpaceOnUse" id="clipPath29">
        <path d="M409 30 L461 30 L461 68 L409 68 L409 30 Z" />
      </clipPath>
      <clipPath clipPathUnits="userSpaceOnUse" id="clipPath30">
        <path d="M0 0 L0 15 L49 15 L49 0 Z" />
      </clipPath>
      <clipPath clipPathUnits="userSpaceOnUse" id="clipPath31">
        <path d="M409 68 L409 568 L461 568 L461 68 Z" />
      </clipPath>
      <clipPath clipPathUnits="userSpaceOnUse" id="clipPath32">
        <path d="M409 68 L461 68 L461 568 L409 568 L409 68 Z" />
      </clipPath>
      <clipPath clipPathUnits="userSpaceOnUse" id="clipPath33">
        <path d="M359 133 L359 152 L557 152 L557 133 Z" />
      </clipPath>
      <clipPath clipPathUnits="userSpaceOnUse" id="clipPath34">
        <path d="M362 133 L362 146 L557 146 L557 133 Z" />
      </clipPath>
      <clipPath clipPathUnits="userSpaceOnUse" id="clipPath35">
        <path d="M0 0 L0 13 L195 13 L195 0 Z" />
      </clipPath>
      <clipPath clipPathUnits="userSpaceOnUse" id="clipPath36">
        <path d="M421 145 L421 152 L429 152 L429 145 Z" />
      </clipPath>
      <clipPath clipPathUnits="userSpaceOnUse" id="clipPath37">
        <path d="M263 382 L263 389 L346 389 L346 382 Z" />
      </clipPath>
      <clipPath clipPathUnits="userSpaceOnUse" id="clipPath38">
        <path d="M263 382 L263 389 L271 389 L271 382 Z" />
      </clipPath>
      <clipPath clipPathUnits="userSpaceOnUse" id="clipPath39">
        <path d="M263 350 L263 369 L597 369 L597 350 Z" />
      </clipPath>
      <clipPath clipPathUnits="userSpaceOnUse" id="clipPath40">
        <path d="M266 350 L266 363 L597 363 L597 350 Z" />
      </clipPath>
      <clipPath clipPathUnits="userSpaceOnUse" id="clipPath41">
        <path d="M0 0 L0 13 L331 13 L331 0 Z" />
      </clipPath>
      <clipPath clipPathUnits="userSpaceOnUse" id="clipPath42">
        <path d="M338 362 L338 369 L346 369 L346 362 Z" />
      </clipPath>
      <clipPath clipPathUnits="userSpaceOnUse" id="clipPath43">
        <path d="M166 392 L166 399 L250 399 L250 392 Z" />
      </clipPath>
      <clipPath clipPathUnits="userSpaceOnUse" id="clipPath44">
        <path d="M166 392 L166 399 L174 399 L174 392 Z" />
      </clipPath>
      <clipPath clipPathUnits="userSpaceOnUse" id="clipPath45">
        <path d="M263 117 L263 136 L435 136 L435 117 Z" />
      </clipPath>
      <clipPath clipPathUnits="userSpaceOnUse" id="clipPath46">
        <path d="M266 117 L266 130 L435 130 L435 117 Z" />
      </clipPath>
      <clipPath clipPathUnits="userSpaceOnUse" id="clipPath47">
        <path d="M0 0 L0 13 L169 13 L169 0 Z" />
      </clipPath>
      <clipPath clipPathUnits="userSpaceOnUse" id="clipPath48">
        <path d="M338 129 L338 136 L346 136 L346 129 Z" />
      </clipPath>
      <clipPath clipPathUnits="userSpaceOnUse" id="clipPath49">
        <path d="M263 214 L263 233 L533 233 L533 214 Z" />
      </clipPath>
      <clipPath clipPathUnits="userSpaceOnUse" id="clipPath50">
        <path d="M266 214 L266 227 L533 227 L533 214 Z" />
      </clipPath>
      <clipPath clipPathUnits="userSpaceOnUse" id="clipPath51">
        <path d="M0 0 L0 13 L267 13 L267 0 Z" />
      </clipPath>
      <clipPath clipPathUnits="userSpaceOnUse" id="clipPath52">
        <path d="M338 226 L338 233 L346 233 L346 226 Z" />
      </clipPath>
      <clipPath clipPathUnits="userSpaceOnUse" id="clipPath53">
        <path d="M178 409 L178 428 L514 428 L514 409 Z" />
      </clipPath>
      <clipPath clipPathUnits="userSpaceOnUse" id="clipPath54">
        <path d="M178 409 L178 422 L510 422 L510 409 Z" />
      </clipPath>
      <clipPath clipPathUnits="userSpaceOnUse" id="clipPath55">
        <path d="M0 0 L0 13 L332 13 L332 0 Z" />
      </clipPath>
      <clipPath clipPathUnits="userSpaceOnUse" id="clipPath56">
        <path d="M359 421 L359 428 L367 428 L367 421 Z" />
      </clipPath>
      <clipPath clipPathUnits="userSpaceOnUse" id="clipPath57">
        <path d="M166 343 L166 362 L267 362 L267 343 Z" />
      </clipPath>
      <clipPath clipPathUnits="userSpaceOnUse" id="clipPath58">
        <path d="M169 343 L169 356 L267 356 L267 343 Z" />
      </clipPath>
      <clipPath clipPathUnits="userSpaceOnUse" id="clipPath59">
        <path d="M0 0 L0 13 L98 13 L98 0 Z" />
      </clipPath>
      <clipPath clipPathUnits="userSpaceOnUse" id="clipPath60">
        <path d="M242 355 L242 362 L250 362 L250 355 Z" />
      </clipPath>
      <clipPath clipPathUnits="userSpaceOnUse" id="clipPath61">
        <path d="M166 199 L166 218 L333 218 L333 199 Z" />
      </clipPath>
      <clipPath clipPathUnits="userSpaceOnUse" id="clipPath62">
        <path d="M169 199 L169 212 L333 212 L333 199 Z" />
      </clipPath>
      <clipPath clipPathUnits="userSpaceOnUse" id="clipPath63">
        <path d="M0 0 L0 13 L164 13 L164 0 Z" />
      </clipPath>
      <clipPath clipPathUnits="userSpaceOnUse" id="clipPath64">
        <path d="M242 211 L242 218 L250 218 L250 211 Z" />
      </clipPath>
      <clipPath clipPathUnits="userSpaceOnUse" id="clipPath65">
        <path d="M116 453 L116 472 L514 472 L514 453 Z" />
      </clipPath>
      <clipPath clipPathUnits="userSpaceOnUse" id="clipPath66">
        <path d="M116 453 L116 466 L511 466 L511 453 Z" />
      </clipPath>
      <clipPath clipPathUnits="userSpaceOnUse" id="clipPath67">
        <path d="M0 0 L0 13 L395 13 L395 0 Z" />
      </clipPath>
      <clipPath clipPathUnits="userSpaceOnUse" id="clipPath68">
        <path d="M442 465 L442 472 L450 472 L450 465 Z" />
      </clipPath>
      <clipPath clipPathUnits="userSpaceOnUse" id="clipPath69">
        <path d="M72 101 L72 120 L250 120 L250 101 Z" />
      </clipPath>
      <clipPath clipPathUnits="userSpaceOnUse" id="clipPath70">
        <path d="M75 101 L75 114 L150 114 L150 101 Z" />
      </clipPath>
      <clipPath clipPathUnits="userSpaceOnUse" id="clipPath71">
        <path d="M0 0 L0 13 L75 13 L75 0 Z" />
      </clipPath>
      <clipPath clipPathUnits="userSpaceOnUse" id="clipPath72">
        <path d="M242 113 L242 120 L250 120 L250 113 Z" />
      </clipPath>
      <clipPath clipPathUnits="userSpaceOnUse" id="clipPath73">
        <path d="M349 249 L349 271 L350 271 L350 249 Z" />
      </clipPath>
      <clipPath clipPathUnits="userSpaceOnUse" id="clipPath74">
        <path d="M354 249 L354 271 L418 271 L418 249 Z" />
      </clipPath>
    </defs>
    <g style="fill:white; stroke:white;">
      <rect x="0" y="0" width="700" style="clip-path:url(#clipPath1); stroke:none;" height="653" />
      <rect x="0" y="0" width="699" style="clip-path:url(#clipPath1); fill:none; stroke:blue;" height="652" />
      <polygon style="fill:rgb(150,150,150); clip-path:url(#clipPath2); stroke:none;" points=" 273 273 466 273 466 293 485 293 485 324 273 324" />
      <polygon style="fill:rgb(150,150,150); clip-path:url(#clipPath2); stroke:none;" points=" 466 273 486 293 466 293" />
      <polygon points=" 270 270 463 270 463 290 482 290 482 321 270 321" style="font-size:11; clip-path:url(#clipPath3); font-family:&apos;Tahoma&apos;; stroke:none;" />
      <polygon points=" 463 270 483 290 463 290" style="font-size:11; clip-path:url(#clipPath3); font-family:&apos;Tahoma&apos;; stroke:none;" />
    </g>
    <g style="font-size:11; font-family:&apos;Tahoma&apos;;">
      <path d="M270 270 L463 270 L463 290 L482 290 L482 321 L270 321 L270 270" style="fill:none; clip-path:url(#clipPath3);" />
      <path d="M463 270 L483 290" style="fill:none; clip-path:url(#clipPath3);" />
      <text x="0" y="12" transform="translate(275,275)" style="clip-path:url(#clipPath4); stroke:none;" xml:space="preserve">Just create a UserEntry</text>
      <text x="0" y="12" transform="translate(275,288)" style="clip-path:url(#clipPath5); stroke:none;" xml:space="preserve">Doesn't create another User instance.</text>
      <text x="0" y="12" transform="translate(275,301)" style="clip-path:url(#clipPath6); stroke:none;" xml:space="preserve">User creation is a heavy thing.</text>
      <polygon style="fill:rgb(150,150,150); clip-path:url(#clipPath7); stroke:none;" points=" 522 45 522 50 533 50 533 52 522 52 522 61 533 72 533 73 531 73 521 63 511 73 509 73 509 72 520 61 520 52 509 52 509 50 520 50 520 45 522 45" />
      <circle style="clip-path:url(#clipPath7); fill:rgb(150,150,150); stroke:none;" r="6" cx="521" cy="39" />
      <polygon style="fill:white; clip-path:url(#clipPath8); stroke:none;" points=" 519 42 519 47 530 47 530 49 519 49 519 58 530 69 530 70 528 70 518 60 508 70 506 70 506 69 517 58 517 49 506 49 506 47 517 47 517 42 519 42" />
      <circle style="clip-path:url(#clipPath8); fill:white; stroke:none;" r="6" cx="518" cy="36" />
      <polygon style="fill:none; clip-path:url(#clipPath8);" points=" 519 42 519 47 530 47 530 49 519 49 519 58 530 69 530 70 528 70 518 60 508 70 506 70 506 69 517 58 517 49 506 49 506 47 517 47 517 42 519 42" />
      <circle style="fill:none; clip-path:url(#clipPath8);" r="6" cx="518" cy="36" />
      <text x="7" y="13" transform="translate(484,73)" style="clip-path:url(#clipPath9); stroke:none;" xml:space="preserve">UserMonitor</text>
      <line transform="translate(484,73)" x1="7" x2="65" y1="13" style="clip-path:url(#clipPath9); fill:none;" y2="13" />
      <rect x="513" y="89" width="14" style="clip-path:url(#clipPath10); fill:none;" height="478" />
      <rect x="514" y="90" width="13" style="clip-path:url(#clipPath10); fill:white; stroke:none;" height="477" />
      <polygon style="fill:rgb(150,150,150); clip-path:url(#clipPath11); stroke:none;" points=" 162 45 162 50 173 50 173 52 162 52 162 61 173 72 173 73 171 73 161 63 151 73 149 73 149 72 160 61 160 52 149 52 149 50 160 50 160 45 162 45" />
      <circle style="clip-path:url(#clipPath11); fill:rgb(150,150,150); stroke:none;" r="6" cx="161" cy="39" />
      <polygon style="fill:white; clip-path:url(#clipPath12); stroke:none;" points=" 159 42 159 47 170 47 170 49 159 49 159 58 170 69 170 70 168 70 158 60 148 70 146 70 146 69 157 58 157 49 146 49 146 47 157 47 157 42 159 42" />
      <circle style="clip-path:url(#clipPath12); fill:white; stroke:none;" r="6" cx="158" cy="36" />
      <polygon style="fill:none; clip-path:url(#clipPath12);" points=" 159 42 159 47 170 47 170 49 159 49 159 58 170 69 170 70 168 70 158 60 148 70 146 70 146 69 157 58 157 49 146 49 146 47 157 47 157 42 159 42" />
      <circle style="fill:none; clip-path:url(#clipPath12);" r="6" cx="158" cy="36" />
      <text x="19" y="13" transform="translate(124,73)" style="clip-path:url(#clipPath13); stroke:none;" xml:space="preserve">Client2</text>
      <line transform="translate(124,73)" x1="19" x2="52" y1="13" style="clip-path:url(#clipPath13); fill:none;" y2="13" />
      <rect x="152" y="89" width="14" style="clip-path:url(#clipPath14); fill:none;" height="478" />
      <rect x="153" y="90" width="13" style="clip-path:url(#clipPath14); fill:white; stroke:none;" height="477" />
      <polygon style="fill:rgb(150,150,150); clip-path:url(#clipPath15); stroke:none;" points=" 68 45 68 50 79 50 79 52 68 52 68 61 79 72 79 73 77 73 67 63 57 73 55 73 55 72 66 61 66 52 55 52 55 50 66 50 66 45 68 45" />
      <circle style="clip-path:url(#clipPath15); fill:rgb(150,150,150); stroke:none;" r="6" cx="67" cy="39" />
      <polygon style="fill:white; clip-path:url(#clipPath16); stroke:none;" points=" 65 42 65 47 76 47 76 49 65 49 65 58 76 69 76 70 74 70 64 60 54 70 52 70 52 69 63 58 63 49 52 49 52 47 63 47 63 42 65 42" />
      <circle style="clip-path:url(#clipPath16); fill:white; stroke:none;" r="6" cx="64" cy="36" />
      <polygon style="fill:none; clip-path:url(#clipPath16);" points=" 65 42 65 47 76 47 76 49 65 49 65 58 76 69 76 70 74 70 64 60 54 70 52 70 52 69 63 58 63 49 52 49 52 47 63 47 63 42 65 42" />
      <circle style="fill:none; clip-path:url(#clipPath16);" r="6" cx="64" cy="36" />
      <text x="19" y="13" transform="translate(30,73)" style="clip-path:url(#clipPath13); stroke:none;" xml:space="preserve">Client1</text>
      <line transform="translate(30,73)" x1="19" x2="52" y1="13" style="clip-path:url(#clipPath13); fill:none;" y2="13" />
      <rect x="58" y="89" width="14" style="clip-path:url(#clipPath17); fill:none;" height="478" />
      <rect x="59" y="90" width="13" style="clip-path:url(#clipPath17); fill:white; stroke:none;" height="477" />
      <rect x="221" y="33" width="74" style="clip-path:url(#clipPath18); fill:rgb(150,150,150); stroke:none;" height="35" />
      <rect x="218" y="30" width="74" style="clip-path:url(#clipPath19); fill:white; stroke:none;" height="35" />
      <rect x="218" y="30" width="73" style="clip-path:url(#clipPath19); fill:none;" height="34" />
      <text x="9" y="13" transform="translate(218,32)" style="clip-path:url(#clipPath20); stroke:none;" xml:space="preserve">UserService</text>
      <line transform="translate(218,32)" x1="9" x2="66" y1="13" style="clip-path:url(#clipPath20); fill:none;" y2="13" />
      <text x="0" y="13" transform="translate(218,47)" style="clip-path:url(#clipPath20); stroke:none;" xml:space="preserve">  </text>
      <line x1="256" x2="256" y1="68" style="stroke-linecap:butt; clip-path:url(#clipPath21); fill:none; stroke-dasharray:18,6;" y2="568" />
      <rect x="249" y="116" width="14" style="clip-path:url(#clipPath22); fill:none;" height="72" />
      <rect x="250" y="117" width="13" style="clip-path:url(#clipPath22); fill:white; stroke:none;" height="71" />
      <rect x="249" y="214" width="14" style="clip-path:url(#clipPath22); fill:none;" height="45" />
      <rect x="250" y="215" width="13" style="clip-path:url(#clipPath22); fill:white; stroke:none;" height="44" />
      <rect x="249" y="358" width="14" style="clip-path:url(#clipPath22); fill:none;" height="37" />
      <rect x="250" y="359" width="13" style="clip-path:url(#clipPath22); fill:white; stroke:none;" height="36" />
      <rect x="321" y="33" width="65" style="clip-path:url(#clipPath23); fill:rgb(150,150,150); stroke:none;" height="35" />
      <rect x="318" y="30" width="65" style="clip-path:url(#clipPath24); fill:white; stroke:none;" height="35" />
      <rect x="318" y="30" width="64" style="clip-path:url(#clipPath24); fill:none;" height="34" />
      <text x="9" y="13" transform="translate(318,32)" style="clip-path:url(#clipPath25); stroke:none;" xml:space="preserve">UserEntry</text>
      <line transform="translate(318,32)" x1="9" x2="57" y1="13" style="clip-path:url(#clipPath25); fill:none;" y2="13" />
      <text x="0" y="13" transform="translate(318,47)" style="clip-path:url(#clipPath25); stroke:none;" xml:space="preserve">  </text>
      <line x1="352" x2="352" y1="68" style="stroke-linecap:butt; clip-path:url(#clipPath26); fill:none; stroke-dasharray:18,6;" y2="568" />
      <rect x="345" y="424" width="14" style="clip-path:url(#clipPath27); fill:none;" height="20" />
      <rect x="346" y="425" width="13" style="clip-path:url(#clipPath27); fill:white; stroke:none;" height="19" />
      <rect x="345" y="132" width="14" style="clip-path:url(#clipPath27); fill:none;" height="46" />
      <rect x="346" y="133" width="13" style="clip-path:url(#clipPath27); fill:white; stroke:none;" height="45" />
      <rect x="345" y="229" width="14" style="clip-path:url(#clipPath27); fill:none;" height="20" />
      <rect x="346" y="230" width="13" style="clip-path:url(#clipPath27); fill:white; stroke:none;" height="19" />
      <rect x="345" y="365" width="14" style="clip-path:url(#clipPath27); fill:none;" height="20" />
      <rect x="346" y="366" width="13" style="clip-path:url(#clipPath27); fill:white; stroke:none;" height="19" />
      <rect x="412" y="33" width="49" style="clip-path:url(#clipPath28); fill:rgb(150,150,150); stroke:none;" height="35" />
      <rect x="409" y="30" width="49" style="clip-path:url(#clipPath29); fill:white; stroke:none;" height="35" />
      <rect x="409" y="30" width="48" style="clip-path:url(#clipPath29); fill:none;" height="34" />
      <text x="14" y="13" transform="translate(409,32)" style="clip-path:url(#clipPath30); stroke:none;" xml:space="preserve">User</text>
      <line transform="translate(409,32)" x1="14" x2="36" y1="13" style="clip-path:url(#clipPath30); fill:none;" y2="13" />
      <text x="0" y="13" transform="translate(409,47)" style="clip-path:url(#clipPath30); stroke:none;" xml:space="preserve">  </text>
      <line x1="435" x2="435" y1="68" style="stroke-linecap:butt; clip-path:url(#clipPath31); fill:none; stroke-dasharray:18,6;" y2="568" />
      <rect x="428" y="468" width="14" style="clip-path:url(#clipPath32); fill:none;" height="20" />
      <rect x="429" y="469" width="13" style="clip-path:url(#clipPath32); fill:white; stroke:none;" height="19" />
      <rect x="428" y="148" width="14" style="clip-path:url(#clipPath32); fill:none;" height="20" />
      <rect x="429" y="149" width="13" style="clip-path:url(#clipPath32); fill:white; stroke:none;" height="19" />
      <path d="M359 148 L428 148" style="fill:none; clip-path:url(#clipPath33);" />
      <rect x="362" y="133" width="195" style="clip-path:url(#clipPath34); fill:white; stroke:none;" height="13" />
      <text x="0" y="12" transform="translate(362,133)" style="clip-path:url(#clipPath35); stroke:none;" xml:space="preserve">1.1.1: Create a User, a heavy operation</text>
      <polygon style="clip-path:url(#clipPath36); stroke:none;" points=" 428 148 421 151 421 145" />
      <polygon style="fill:none; clip-path:url(#clipPath36);" points=" 428 148 421 151 421 145" />
      <path style="fill:none; stroke-dasharray:18,6; clip-path:url(#clipPath37); stroke-linecap:butt;" d="M345 385 L318 385 L295 385 L263 385" />
      <path d="M270 382 L263 385 L270 388" style="fill:none; clip-path:url(#clipPath38);" />
      <path d="M263 365 L345 365" style="fill:none; clip-path:url(#clipPath39);" />
      <rect x="266" y="350" width="331" style="clip-path:url(#clipPath40); fill:white; stroke:none;" height="13" />
      <text x="0" y="12" transform="translate(266,350)" style="clip-path:url(#clipPath41); stroke:none;" xml:space="preserve">3.1: Find UserEntry for Client2, return the User instance in this Entry</text>
      <polygon style="clip-path:url(#clipPath42); stroke:none;" points=" 345 365 338 368 338 362" />
      <polygon style="fill:none; clip-path:url(#clipPath42);" points=" 345 365 338 368 338 362" />
      <path style="fill:none; stroke-dasharray:18,6; clip-path:url(#clipPath43); stroke-linecap:butt;" d="M249 395 L218 395 L195 395 L166 395" />
      <path d="M173 392 L166 395 L173 398" style="fill:none; clip-path:url(#clipPath44);" />
      <path d="M263 132 L345 132" style="fill:none; clip-path:url(#clipPath45);" />
      <rect x="266" y="117" width="169" style="clip-path:url(#clipPath46); fill:white; stroke:none;" height="13" />
      <text x="0" y="12" transform="translate(266,117)" style="clip-path:url(#clipPath47); stroke:none;" xml:space="preserve">1.1: Create a UserEntry for Client1</text>
      <polygon style="clip-path:url(#clipPath48); stroke:none;" points=" 345 132 338 135 338 129" />
      <polygon style="fill:none; clip-path:url(#clipPath48);" points=" 345 132 338 135 338 129" />
      <path d="M263 229 L345 229" style="fill:none; clip-path:url(#clipPath49);" />
      <rect x="266" y="214" width="267" style="clip-path:url(#clipPath50); fill:white; stroke:none;" height="13" />
      <text x="0" y="12" transform="translate(266,214)" style="clip-path:url(#clipPath51); stroke:none;" xml:space="preserve">2.1: Create a User Entry to the existed User for Client2</text>
      <polygon style="clip-path:url(#clipPath52); stroke:none;" points=" 345 229 338 232 338 226" />
      <polygon style="fill:none; clip-path:url(#clipPath52);" points=" 345 229 338 232 338 226" />
      <path d="M513 424 L359 424" style="fill:none; clip-path:url(#clipPath53);" />
      <rect x="178" y="409" width="332" style="clip-path:url(#clipPath54); fill:white; stroke:none;" height="13" />
      <text x="0" y="12" transform="translate(178,409)" style="clip-path:url(#clipPath55); stroke:none;" xml:space="preserve">4: Check if this entry is idle for too long time. If so, remove this entry</text>
      <polygon style="clip-path:url(#clipPath56); stroke:none;" points=" 359 424 366 421 366 427" />
      <polygon style="fill:none; clip-path:url(#clipPath56);" points=" 359 424 366 421 366 427" />
      <path d="M166 358 L249 358" style="fill:none; clip-path:url(#clipPath57);" />
      <rect x="169" y="343" width="98" style="clip-path:url(#clipPath58); fill:white; stroke:none;" height="13" />
      <text x="0" y="12" transform="translate(169,343)" style="clip-path:url(#clipPath59); stroke:none;" xml:space="preserve">3: Get User instance</text>
      <polygon style="clip-path:url(#clipPath60); stroke:none;" points=" 249 358 242 361 242 355" />
      <polygon style="fill:none; clip-path:url(#clipPath60);" points=" 249 358 242 361 242 355" />
      <path d="M166 214 L249 214" style="fill:none; clip-path:url(#clipPath61);" />
      <rect x="169" y="199" width="164" style="clip-path:url(#clipPath62); fill:white; stroke:none;" height="13" />
      <text x="0" y="12" transform="translate(169,199)" style="clip-path:url(#clipPath63); stroke:none;" xml:space="preserve">2: Signin with the same user name</text>
      <polygon style="clip-path:url(#clipPath64); stroke:none;" points=" 249 214 242 217 242 211" />
      <polygon style="fill:none; clip-path:url(#clipPath64);" points=" 249 214 242 217 242 211" />
      <path d="M513 468 L442 468" style="fill:none; clip-path:url(#clipPath65);" />
      <rect x="116" y="453" width="395" style="clip-path:url(#clipPath66); fill:white; stroke:none;" height="13" />
      <text x="0" y="12" transform="translate(116,453)" style="clip-path:url(#clipPath67); stroke:none;" xml:space="preserve">5: Check if this User is not associated with any UserEntry. If so, remove this Entry</text>
      <polygon style="clip-path:url(#clipPath68); stroke:none;" points=" 442 468 449 465 449 471" />
      <polygon style="fill:none; clip-path:url(#clipPath68);" points=" 442 468 449 465 449 471" />
      <path d="M72 116 L249 116" style="fill:none; clip-path:url(#clipPath69);" />
      <rect x="75" y="101" width="75" style="clip-path:url(#clipPath70); fill:white; stroke:none;" height="13" />
      <text x="0" y="12" transform="translate(75,101)" style="clip-path:url(#clipPath71); stroke:none;" xml:space="preserve">1: Signin a User</text>
      <polygon style="clip-path:url(#clipPath72); stroke:none;" points=" 249 116 242 119 242 113" />
      <polygon style="fill:none; clip-path:url(#clipPath72);" points=" 249 116 242 119 242 113" />
      <path style="fill:none; stroke-dasharray:18,6; clip-path:url(#clipPath73); stroke-linecap:butt;" d="M349 270 L349 249" />
      <path style="fill:none; stroke-dasharray:18,6; clip-path:url(#clipPath74); stroke-linecap:butt;" d="M417 270 L354 249" />
    </g>
  </g>
</svg>
